<?xml version="1.0" encoding="UTF-8" standalone="no"?>
<svg
   version="1.1"
   id="svg1"
   viewBox="0 0 1202.3365 371.25444"
   xmlns:xlink="http://www.w3.org/1999/xlink"
   xmlns="http://www.w3.org/2000/svg"
   xmlns:svg="http://www.w3.org/2000/svg">
  <defs
     id="defs1">
    <clipPath
       clipPathUnits="userSpaceOnUse"
       id="clipPath13">
      <path
         id="path13"
         style="display:none;fill:#e0482e;fill-opacity:1;fill-rule:nonzero;stroke:none;stroke-width:0.672039"
         d="m 216.8257,202.7597 v -7.52899 c -19.7069,21.30592 -39.59746,42.69467 -59.30462,63.9963 H 52.303198 v 7.52898 H 157.52108 c 19.70716,-21.30162 39.59772,-42.69037 59.30462,-63.99629 z m 0,-14.78907 v 6.7223 l -59.30462,63.99631 H 52.303198 v -6.99122 H 157.52108 Z M 157.52108,101.92519 216.8257,38.197783 v 0.537784 l -59.30462,63.996303 m 0,-0.80668 H 52.303198 v 0.80668 H 157.52108 m -105.217882,7.79786 v -1.07556 H 157.52108 L 216.8257,45.72676 v 0.806675 l -59.30462,63.996295 z m 0,7.79786 v -1.34445 H 157.52108 L 216.8257,52.986843 v 1.344461 l -59.30462,63.996286 z m 0,7.79788 v -1.61336 H 157.52108 L 216.8257,60.51582 v 1.613352 l -59.30462,63.996298 z m 0,7.79786 v -1.88224 H 157.52108 L 216.8257,68.044797 v 1.882244 l -59.30462,63.996289 z m 0,7.79787 v -2.15113 H 157.52108 L 216.8257,75.573773 v 2.151136 L 157.52108,141.7212 Z M 216.8257,83.10275 v 2.420027 L 157.52108,149.51907 H 52.303198 v -2.42003 H 157.52108 Z M 52.303198,157.31693 v -2.9578 H 157.52108 L 216.8257,90.631726 v 2.957805 L 157.52108,157.31693 Z M 216.8257,98.160699 v 3.226711 L 157.52108,165.1148 H 52.303198 v -3.22669 H 157.52108 Z m 0,7.528971 v 3.4956 l -59.30462,63.72741 H 52.303198 v -3.49561 H 157.52108 Z m 0,7.26009 v 4.03338 l -59.30462,63.7274 H 52.303198 v -3.76449 H 157.52108 Z m 0,7.52897 v 4.30229 l -59.30462,63.72739 H 52.303198 v -4.03338 H 157.52108 Z M 52.303198,196.30627 v -4.30226 H 157.52108 l 59.30462,-63.9963 v 4.57116 l -59.30462,63.7274 z M 216.8257,135.5367 v 4.84005 l -59.30462,63.7274 H 52.303198 v -4.84006 H 157.52108 Z M 52.303198,211.90202 v -5.10894 H 157.52108 l 59.30462,-63.72742 v 5.10894 l -59.30462,63.72742 z M 216.8257,150.32575 v 5.64673 l -59.30462,63.7274 H 52.303198 v -5.37784 H 157.52108 Z m -164.522502,77.172 v -5.64673 H 157.52108 l 59.30462,-63.9963 v 5.91562 l -59.30462,63.72741 z m 0,7.79788 V 229.38 H 157.52108 l 59.30462,-63.9963 v 6.18451 l -59.30462,63.72742 z m 0,7.79786 v -6.45341 H 157.52108 l 59.30462,-63.7274 v 6.45341 l -59.30462,63.7274 z m 0,7.79787 v -6.7223 H 157.52108 l 59.30462,-63.72742 v 6.7223 l -59.30462,63.72742 z" />
      <path
         id="lpe_path-effect13"
         style="display:block;fill:#e0482e;fill-opacity:1;fill-rule:nonzero;stroke:none;stroke-width:0.672039"
         class="powerclip"
         d="M 47.303198,33.197783 H 221.8257 V 271.75599 H 47.303198 Z M 216.8257,202.7597 v -7.52899 c -19.7069,21.30592 -39.59746,42.69467 -59.30462,63.9963 H 52.303198 v 7.52898 H 157.52108 c 19.70716,-21.30162 39.59772,-42.69037 59.30462,-63.99629 z m 0,-14.78907 -59.30462,63.72739 H 52.303198 v 6.99122 H 157.52108 L 216.8257,194.69293 Z M 157.52108,102.73187 216.8257,38.735567 v -0.537784 l -59.30462,63.727407 m 0,0.80668 H 52.303198 v -0.80668 H 157.52108 M 52.303198,110.52973 H 157.52108 L 216.8257,46.533435 V 45.72676 l -59.30462,63.72741 H 52.303198 Z m 0,7.79786 H 157.52108 L 216.8257,54.331304 V 52.986843 L 157.52108,116.98314 H 52.303198 Z m 0,7.79788 H 157.52108 L 216.8257,62.129172 V 60.51582 l -59.30462,63.99629 H 52.303198 Z m 0,7.79786 H 157.52108 L 216.8257,69.927041 V 68.044797 L 157.52108,132.04109 H 52.303198 Z m 0,7.79787 H 157.52108 L 216.8257,77.724909 V 75.573773 L 157.52108,139.57007 H 52.303198 Z M 216.8257,83.10275 157.52108,147.09904 H 52.303198 v 2.42003 H 157.52108 L 216.8257,85.522777 Z M 52.303198,157.31693 H 157.52108 L 216.8257,93.589531 V 90.631726 L 157.52108,154.35913 H 52.303198 Z M 216.8257,98.160699 157.52108,161.88811 H 52.303198 v 3.22669 H 157.52108 l 59.30462,-63.72739 z m 0,7.528971 -59.30462,63.7274 H 52.303198 v 3.49561 H 157.52108 l 59.30462,-63.72741 z m 0,7.26009 -59.30462,63.99629 H 52.303198 v 3.76449 H 157.52108 l 59.30462,-63.7274 z m 0,7.52897 -59.30462,63.9963 H 52.303198 v 4.03338 H 157.52108 L 216.8257,124.78102 Z M 52.303198,196.30627 H 157.52108 l 59.30462,-63.7274 v -4.57116 l -59.30462,63.9963 H 52.303198 Z M 216.8257,135.5367 157.52108,199.26409 H 52.303198 v 4.84006 H 157.52108 l 59.30462,-63.7274 z M 52.303198,211.90202 H 157.52108 L 216.8257,148.1746 v -5.10894 l -59.30462,63.72742 H 52.303198 Z M 216.8257,150.32575 157.52108,214.32204 H 52.303198 v 5.37784 H 157.52108 l 59.30462,-63.7274 z m -164.522502,77.172 H 157.52108 l 59.30462,-63.72741 v -5.91562 l -59.30462,63.9963 H 52.303198 Z m 0,7.79788 H 157.52108 L 216.8257,171.56821 V 165.3837 L 157.52108,229.38 H 52.303198 Z m 0,7.79786 H 157.52108 l 59.30462,-63.7274 v -6.45341 l -59.30462,63.7274 H 52.303198 Z m 0,7.79787 H 157.52108 l 59.30462,-63.72742 v -6.7223 l -59.30462,63.72742 H 52.303198 Z" />
    </clipPath>
    <clipPath
       clipPathUnits="userSpaceOnUse"
       id="clipPath16">
      <path
         id="path16"
         style="display:none;fill:#e0482e;fill-opacity:1;fill-rule:nonzero;stroke:none;stroke-width:0.672039"
         d="m 348.00641,229.38 v -7.52898 c -19.70717,21.30592 -39.59745,42.69467 -59.30461,63.99629 H 183.48391 v 7.52898 H 288.7018 c 19.70716,-21.30162 39.59744,-42.69037 59.30461,-63.99629 z m 0,-14.78907 v 6.7223 L 288.7018,285.30954 H 183.48391 v -6.99119 H 288.7018 Z M 288.7018,128.5455 348.00641,64.818092 v 0.537784 L 288.7018,129.35216 m 0,-0.80666 H 183.48391 v 0.80666 H 288.7018 m -105.21789,7.79788 v -1.07558 H 288.7018 l 59.30461,-63.727391 v 0.806675 L 288.7018,137.15004 Z m 0,7.79787 v -1.34446 H 288.7018 l 59.30461,-63.996297 v 1.34446 L 288.7018,144.94791 Z m 0,7.79786 v -1.61334 H 288.7018 l 59.30461,-63.996294 v 1.613345 L 288.7018,152.74577 Z m 0,7.79788 V 158.6614 H 288.7018 l 59.30461,-63.996294 v 1.882247 L 288.7018,160.54365 Z m 0,7.79785 v -2.15113 H 288.7018 l 59.30461,-63.99629 v 2.15113 L 288.7018,168.3415 Z m 164.5225,-58.61845 v 2.42004 L 288.7018,176.13938 H 183.48391 v -2.42004 H 288.7018 Z m -164.5225,74.2142 v -2.95782 H 288.7018 l 59.30461,-63.7274 v 2.95781 l -59.30461,63.72741 z m 164.5225,-59.15623 v 3.22669 l -59.30461,63.7274 H 183.48391 v -3.2267 H 288.7018 Z m 0,7.52897 v 3.49558 L 288.7018,199.53299 H 183.48391 V 196.0374 H 288.7018 Z m 0,7.26008 v 4.03338 L 288.7018,207.33084 H 183.48391 v -3.76448 H 288.7018 Z m 0,7.52897 v 4.30228 l -59.30461,63.7274 H 183.48391 v -4.03338 H 288.7018 Z m -164.5225,75.82756 v -4.30229 H 288.7018 l 59.30461,-63.99629 v 4.57116 L 288.7018,222.9266 Z m 164.5225,-60.7696 v 4.84005 l -59.30461,63.7274 H 183.48391 V 225.8844 H 288.7018 Z m -164.5225,76.36533 v -5.10895 H 288.7018 l 59.30461,-63.72742 v 5.10895 l -59.30461,63.72742 z m 164.5225,-61.57628 v 5.64674 L 288.7018,246.32018 H 183.48391 v -5.37784 H 288.7018 Z m -164.5225,77.17201 v -5.64673 H 288.7018 l 59.30461,-63.9963 v 5.91563 l -59.30461,63.7274 z m 0,7.79788 v -5.91563 H 288.7018 l 59.30461,-63.9963 v 6.18451 l -59.30461,63.72742 z m 0,7.79785 V 263.2604 H 288.7018 l 59.30461,-63.72741 v 6.4534 l -59.30461,63.7274 z m 0,7.79788 v -6.7223 H 288.7018 l 59.30461,-63.72742 v 6.72231 l -59.30461,63.72741 z" />
      <path
         id="lpe_path-effect16"
         style="display:block;fill:#e0482e;fill-opacity:1;fill-rule:nonzero;stroke:none;stroke-width:0.672039"
         class="powerclip"
         d="M 178.48396,59.818092 H 353.00647 V 298.37629 H 178.48396 Z M 348.00641,229.38 v -7.52898 c -19.70717,21.30592 -39.59745,42.69467 -59.30461,63.99629 H 183.48391 v 7.52898 H 288.7018 c 19.70716,-21.30162 39.59744,-42.69037 59.30461,-63.99629 z m 0,-14.78907 -59.30461,63.72742 H 183.48391 v 6.99119 H 288.7018 l 59.30461,-63.99631 z M 288.7018,129.35216 348.00641,65.355876 V 64.818092 L 288.7018,128.5455 m 0,0.80666 H 183.48391 V 128.5455 H 288.7018 m -105.21789,8.60454 H 288.7018 L 348.00641,73.153744 V 72.347069 L 288.7018,136.07446 H 183.48391 Z m 0,7.79787 H 288.7018 l 59.30461,-63.996297 v -1.34446 L 288.7018,143.60345 H 183.48391 Z m 0,7.79786 H 288.7018 L 348.00641,88.749481 V 87.136136 L 288.7018,151.13243 H 183.48391 Z m 0,7.79788 H 288.7018 L 348.00641,96.547353 V 94.665106 L 288.7018,158.6614 H 183.48391 Z m 0,7.79785 H 288.7018 l 59.30461,-63.99629 v -2.15113 L 288.7018,166.19037 H 183.48391 Z m 164.5225,-58.61845 -59.30461,63.99629 H 183.48391 v 2.42004 H 288.7018 l 59.30461,-63.99629 z m -164.5225,74.2142 H 288.7018 l 59.30461,-63.72741 v -2.95781 l -59.30461,63.7274 H 183.48391 Z m 164.5225,-59.15623 -59.30461,63.72739 H 183.48391 v 3.2267 H 288.7018 l 59.30461,-63.7274 z m 0,7.52897 -59.30461,63.72741 H 183.48391 v 3.49559 H 288.7018 l 59.30461,-63.72742 z m 0,7.26008 -59.30461,63.99629 H 183.48391 v 3.76448 H 288.7018 l 59.30461,-63.72739 z m 0,7.52897 -59.30461,63.9963 H 183.48391 v 4.03338 H 288.7018 l 59.30461,-63.7274 z M 183.48391,222.9266 H 288.7018 l 59.30461,-63.72742 v -4.57116 L 288.7018,218.62431 H 183.48391 Z M 348.00641,162.157 288.7018,225.8844 H 183.48391 v 4.84005 H 288.7018 l 59.30461,-63.7274 z m -164.5225,76.36533 H 288.7018 l 59.30461,-63.72742 v -5.10895 L 288.7018,233.41338 H 183.48391 Z m 164.5225,-61.57628 -59.30461,63.99629 H 183.48391 v 5.37784 H 288.7018 l 59.30461,-63.72739 z m -164.5225,77.17201 H 288.7018 l 59.30461,-63.7274 v -5.91563 l -59.30461,63.9963 H 183.48391 Z m 0,7.79788 H 288.7018 l 59.30461,-63.72742 v -6.18451 l -59.30461,63.9963 H 183.48391 Z m 0,7.79785 H 288.7018 l 59.30461,-63.7274 v -6.4534 L 288.7018,263.2604 H 183.48391 Z m 0,7.79788 H 288.7018 l 59.30461,-63.72741 v -6.72231 L 288.7018,270.78937 H 183.48391 Z" />
    </clipPath>
    <clipPath
       clipPathUnits="userSpaceOnUse"
       id="clipPath19">
      <path
         id="path19"
         d="m 348.00641,64.818092 h -97.29238 v 0 0 h -0.1238 0.0284 l -67.13467,64.265188 v 0 164.29301 h 105.21789 l 59.30462,-65.60964 v 0 z"
         style="display:none;fill:#f5f5f5;fill-opacity:1;fill-rule:evenodd;stroke:none;stroke-width:0.674122"
         clip-path="none" />
      <path
         id="lpe_path-effect19"
         style="display:inline;fill:#f5f5f5;fill-opacity:1;fill-rule:evenodd;stroke:none;stroke-width:0.674122"
         class="powerclip"
         d="M 47.303198,33.197783 H 221.8257 V 271.75599 H 47.303198 Z M 348.00641,64.818092 h -97.29238 v 0 0 h -0.1238 0.0284 l -67.13467,64.265188 v 0 164.29301 h 105.21789 l 59.30462,-65.60964 v 0 z" />
    </clipPath>
  </defs>
  <g
     id="g20"
     transform="translate(1.5713021,15.246917)">
    <g
       id="g13"
       clip-path="url(#clipPath19)">
      <path
         id="path136"
         d="m 216.8257,38.197783 h -97.29238 v 0 0 h -0.12381 0.0284 L 52.303198,102.46296 v 0 164.29303 H 157.52108 l 59.30462,-65.60965 v 0 z"
         style="fill:#f5f5f5;fill-opacity:1;fill-rule:evenodd;stroke:none;stroke-width:0.674122"
         clip-path="url(#clipPath13)"
         mask="none" />
    </g>
    <g
       id="g12"
       style="display:inline">
      <path
         id="path47"
         d="m 348.00641,64.818092 h -97.29238 v 0 0 h -0.1238 0.0284 l -67.13467,64.265188 v 0 164.29301 h 105.21789 l 59.30462,-65.60964 v 0 z"
         style="display:inline;fill:#f5f5f5;fill-opacity:1;fill-rule:evenodd;stroke:none;stroke-width:0.674122"
         clip-path="url(#clipPath16)" />
    </g>
  </g>
  <path
     id="path92"
     d="m 1066.1772,98.662327 v -18.59732 h -72.52952 l -36.5748,14.87785 v 11.158393 h 14.258 z m 39.0544,45.253473 V 117.25964 H 925.45748 V 234.42275 H 823.17218 V 117.25964 h -73.7693 l -40.2942,42.15392 -38.4345,-42.15392 H 566.52926 v 58.89152 H 492.14 V 117.25964 H 436.34804 V 261.07891 H 492.14 V 202.1874 h 74.38926 v 58.89151 h 55.79192 v -117.2623 l 42.7738,48.07407 v 69.18823 h 55.792 v -69.18823 l 45.8734,-48.07407 v 117.2623 H 1105.2316 V 234.42275 H 981.24948 V 202.1874 H 1098.4126 V 176.15116 H 981.24948 V 143.9158 Z"
     style="fill:#f5f5f5;fill-opacity:1;fill-rule:evenodd;stroke:none;stroke-width:1.54135" />
</svg>
